<?xml version="1.0" encoding="UTF-8" standalone="no"?><svg xmlns="http://www.w3.org/2000/svg" xmlns:xlink="http://www.w3.org/1999/xlink" contentStyleType="text/css" height="662px" preserveAspectRatio="none" style="width:1054px;height:662px;background:#FFFFFF;" version="1.1" viewBox="0 0 1054 662" width="1054px" zoomAndPan="magnify"><defs/><g><rect fill="#FFFFFF" height="563.3906" style="stroke:#181818;stroke-width:1.0;" width="10" x="48" y="46.2969"/><rect fill="#FFFFFF" height="29.1328" style="stroke:#181818;stroke-width:1.0;" width="10" x="251" y="67.4297"/><rect fill="#FFFFFF" height="29.1328" style="stroke:#181818;stroke-width:1.0;" width="10" x="251" y="125.6953"/><rect fill="#FFFFFF" height="99.2656" style="stroke:#181818;stroke-width:1.0;" width="10" x="478" y="295.4922"/><rect fill="#FFFFFF" height="56.1328" style="stroke:#181818;stroke-width:1.0;" width="10" x="817" y="324.625"/><rect fill="#FFFFFF" height="29.1328" style="stroke:#181818;stroke-width:1.0;" width="10" x="974" y="537.4219"/><rect fill="none" height="324.3281" style="stroke:#000000;stroke-width:1.5;" width="1038" x="10" y="257.2266"/><rect fill="none" height="46.2656" style="stroke:#000000;stroke-width:1.5;" width="852" x="20" y="409.7578"/><rect fill="none" height="75.3984" style="stroke:#000000;stroke-width:1.5;" width="1018" x="20" y="499.1563"/><line style="stroke:#181818;stroke-width:0.5;stroke-dasharray:5.0,5.0;" x1="53" x2="53" y1="36.2969" y2="627.6875"/><line style="stroke:#181818;stroke-width:0.5;stroke-dasharray:5.0,5.0;" x1="255.5" x2="255.5" y1="36.2969" y2="627.6875"/><line style="stroke:#181818;stroke-width:0.5;stroke-dasharray:5.0,5.0;" x1="482.5" x2="482.5" y1="36.2969" y2="627.6875"/><line style="stroke:#181818;stroke-width:0.5;stroke-dasharray:5.0,5.0;" x1="822" x2="822" y1="36.2969" y2="627.6875"/><line style="stroke:#181818;stroke-width:0.5;stroke-dasharray:5.0,5.0;" x1="979" x2="979" y1="36.2969" y2="627.6875"/><rect fill="#E2E2F0" height="30.2969" rx="2.5" ry="2.5" style="stroke:#181818;stroke-width:0.5;" width="46" x="30" y="5"/><text fill="#000000" font-family="sans-serif" font-size="14" lengthAdjust="spacing" textLength="32" x="37" y="24.9951">Main</text><rect fill="#E2E2F0" height="30.2969" rx="2.5" ry="2.5" style="stroke:#181818;stroke-width:0.5;" width="46" x="30" y="626.6875"/><text fill="#000000" font-family="sans-serif" font-size="14" lengthAdjust="spacing" textLength="32" x="37" y="646.6826">Main</text><rect fill="#E2E2F0" height="30.2969" rx="2.5" ry="2.5" style="stroke:#181818;stroke-width:0.5;" width="79" x="216.5" y="5"/><text fill="#000000" font-family="sans-serif" font-size="14" lengthAdjust="spacing" textLength="65" x="223.5" y="24.9951">LoadData</text><rect fill="#E2E2F0" height="30.2969" rx="2.5" ry="2.5" style="stroke:#181818;stroke-width:0.5;" width="79" x="216.5" y="626.6875"/><text fill="#000000" font-family="sans-serif" font-size="14" lengthAdjust="spacing" textLength="65" x="223.5" y="646.6826">LoadData</text><rect fill="#E2E2F0" height="30.2969" rx="2.5" ry="2.5" style="stroke:#181818;stroke-width:0.5;" width="105" x="430.5" y="5"/><text fill="#000000" font-family="sans-serif" font-size="14" lengthAdjust="spacing" textLength="91" x="437.5" y="24.9951">AvailableData</text><rect fill="#E2E2F0" height="30.2969" rx="2.5" ry="2.5" style="stroke:#181818;stroke-width:0.5;" width="105" x="430.5" y="626.6875"/><text fill="#000000" font-family="sans-serif" font-size="14" lengthAdjust="spacing" textLength="91" x="437.5" y="646.6826">AvailableData</text><rect fill="#E2E2F0" height="30.2969" rx="2.5" ry="2.5" style="stroke:#181818;stroke-width:0.5;" width="80" x="782" y="5"/><text fill="#000000" font-family="sans-serif" font-size="14" lengthAdjust="spacing" textLength="66" x="789" y="24.9951">DataTotal</text><rect fill="#E2E2F0" height="30.2969" rx="2.5" ry="2.5" style="stroke:#181818;stroke-width:0.5;" width="80" x="782" y="626.6875"/><text fill="#000000" font-family="sans-serif" font-size="14" lengthAdjust="spacing" textLength="66" x="789" y="646.6826">DataTotal</text><rect fill="#E2E2F0" height="30.2969" rx="2.5" ry="2.5" style="stroke:#181818;stroke-width:0.5;" width="98" x="930" y="5"/><text fill="#000000" font-family="sans-serif" font-size="14" lengthAdjust="spacing" textLength="84" x="937" y="24.9951">HigherYears</text><rect fill="#E2E2F0" height="30.2969" rx="2.5" ry="2.5" style="stroke:#181818;stroke-width:0.5;" width="98" x="930" y="626.6875"/><text fill="#000000" font-family="sans-serif" font-size="14" lengthAdjust="spacing" textLength="84" x="937" y="646.6826">HigherYears</text><rect fill="#FFFFFF" height="563.3906" style="stroke:#181818;stroke-width:1.0;" width="10" x="48" y="46.2969"/><rect fill="#FFFFFF" height="29.1328" style="stroke:#181818;stroke-width:1.0;" width="10" x="251" y="67.4297"/><rect fill="#FFFFFF" height="29.1328" style="stroke:#181818;stroke-width:1.0;" width="10" x="251" y="125.6953"/><rect fill="#FFFFFF" height="99.2656" style="stroke:#181818;stroke-width:1.0;" width="10" x="478" y="295.4922"/><rect fill="#FFFFFF" height="56.1328" style="stroke:#181818;stroke-width:1.0;" width="10" x="817" y="324.625"/><rect fill="#FFFFFF" height="29.1328" style="stroke:#181818;stroke-width:1.0;" width="10" x="974" y="537.4219"/><polygon fill="#181818" points="239,63.4297,249,67.4297,239,71.4297,243,67.4297" style="stroke:#181818;stroke-width:1.0;"/><line style="stroke:#181818;stroke-width:1.0;" x1="58" x2="245" y1="67.4297" y2="67.4297"/><text fill="#000000" font-family="sans-serif" font-size="13" lengthAdjust="spacing" textLength="174" x="65" y="62.3638">load_configuration(filepath)</text><polygon fill="#181818" points="69,92.5625,59,96.5625,69,100.5625,65,96.5625" style="stroke:#181818;stroke-width:1.0;"/><line style="stroke:#181818;stroke-width:1.0;stroke-dasharray:2.0,2.0;" x1="63" x2="255" y1="96.5625" y2="96.5625"/><text fill="#000000" font-family="sans-serif" font-size="13" lengthAdjust="spacing" textLength="83" x="75" y="91.4966">configuration</text><polygon fill="#181818" points="239,121.6953,249,125.6953,239,129.6953,243,125.6953" style="stroke:#181818;stroke-width:1.0;"/><line style="stroke:#181818;stroke-width:1.0;" x1="58" x2="245" y1="125.6953" y2="125.6953"/><text fill="#000000" font-family="sans-serif" font-size="13" lengthAdjust="spacing" textLength="156" x="65" y="120.6294">load_data(configuration)</text><polygon fill="#181818" points="69,150.8281,59,154.8281,69,158.8281,65,154.8281" style="stroke:#181818;stroke-width:1.0;"/><line style="stroke:#181818;stroke-width:1.0;stroke-dasharray:2.0,2.0;" x1="63" x2="255" y1="154.8281" y2="154.8281"/><text fill="#000000" font-family="sans-serif" font-size="13" lengthAdjust="spacing" textLength="29" x="75" y="149.7622">data</text><polygon fill="#181818" points="471,179.9609,481,183.9609,471,187.9609,475,183.9609" style="stroke:#181818;stroke-width:1.0;"/><line style="stroke:#181818;stroke-width:1.0;" x1="58" x2="477" y1="183.9609" y2="183.9609"/><text fill="#000000" font-family="sans-serif" font-size="13" lengthAdjust="spacing" textLength="81" x="65" y="178.895">preprocess()</text><polygon fill="#181818" points="810,209.0938,820,213.0938,810,217.0938,814,213.0938" style="stroke:#181818;stroke-width:1.0;"/><line style="stroke:#181818;stroke-width:1.0;" x1="58" x2="816" y1="213.0938" y2="213.0938"/><text fill="#000000" font-family="sans-serif" font-size="13" lengthAdjust="spacing" textLength="61" x="65" y="208.0278">initialize()</text><polygon fill="#181818" points="471,238.2266,481,242.2266,471,246.2266,475,242.2266" style="stroke:#181818;stroke-width:1.0;"/><line style="stroke:#181818;stroke-width:1.0;" x1="58" x2="477" y1="242.2266" y2="242.2266"/><text fill="#000000" font-family="sans-serif" font-size="13" lengthAdjust="spacing" textLength="337" x="65" y="237.1606">set_filtering(programme_filtering, herkomst_filtering)</text><path d="M10,257.2266 L87,257.2266 L87,264.3594 L77,274.3594 L10,274.3594 L10,257.2266 " fill="#EEEEEE" style="stroke:#000000;stroke-width:1.5;"/><rect fill="none" height="324.3281" style="stroke:#000000;stroke-width:1.5;" width="1038" x="10" y="257.2266"/><text fill="#000000" font-family="sans-serif" font-size="13" font-weight="bold" lengthAdjust="spacing" textLength="32" x="25" y="270.2935">loop</text><text fill="#000000" font-family="sans-serif" font-size="11" font-weight="bold" lengthAdjust="spacing" textLength="203" x="102" y="269.437">[for specified years and weeks]</text><polygon fill="#181818" points="466,291.4922,476,295.4922,466,299.4922,470,295.4922" style="stroke:#181818;stroke-width:1.0;"/><line style="stroke:#181818;stroke-width:1.0;" x1="58" x2="472" y1="295.4922" y2="295.4922"/><text fill="#000000" font-family="sans-serif" font-size="13" lengthAdjust="spacing" textLength="401" x="65" y="290.4263">predict_nr_of_students(predict_year, predict_week, skip_years)</text><polygon fill="#181818" points="805,320.625,815,324.625,805,328.625,809,324.625" style="stroke:#181818;stroke-width:1.0;"/><line style="stroke:#181818;stroke-width:1.0;" x1="488" x2="811" y1="324.625" y2="324.625"/><text fill="#000000" font-family="sans-serif" font-size="13" lengthAdjust="spacing" textLength="310" x="495" y="319.5591">prepare_data(data_to_predict, data_cumulative)</text><line style="stroke:#181818;stroke-width:1.0;" x1="827" x2="869" y1="353.7578" y2="353.7578"/><line style="stroke:#181818;stroke-width:1.0;" x1="869" x2="869" y1="353.7578" y2="366.7578"/><line style="stroke:#181818;stroke-width:1.0;" x1="828" x2="869" y1="366.7578" y2="366.7578"/><polygon fill="#181818" points="838,362.7578,828,366.7578,838,370.7578,834,366.7578" style="stroke:#181818;stroke-width:1.0;"/><text fill="#000000" font-family="sans-serif" font-size="13" lengthAdjust="spacing" textLength="133" x="834" y="348.6919">numerus_fixus_cap()</text><polygon fill="#181818" points="499,376.7578,489,380.7578,499,384.7578,495,380.7578" style="stroke:#181818;stroke-width:1.0;"/><line style="stroke:#181818;stroke-width:1.0;stroke-dasharray:2.0,2.0;" x1="493" x2="821" y1="380.7578" y2="380.7578"/><polygon fill="#181818" points="69,390.7578,59,394.7578,69,398.7578,65,394.7578" style="stroke:#181818;stroke-width:1.0;"/><line style="stroke:#181818;stroke-width:1.0;stroke-dasharray:2.0,2.0;" x1="63" x2="482" y1="394.7578" y2="394.7578"/><path d="M20,409.7578 L84,409.7578 L84,416.8906 L74,426.8906 L20,426.8906 L20,409.7578 " fill="#EEEEEE" style="stroke:#000000;stroke-width:1.5;"/><rect fill="none" height="46.2656" style="stroke:#000000;stroke-width:1.5;" width="852" x="20" y="409.7578"/><text fill="#000000" font-family="sans-serif" font-size="13" font-weight="bold" lengthAdjust="spacing" textLength="19" x="35" y="422.8247">alt</text><text fill="#000000" font-family="sans-serif" font-size="11" font-weight="bold" lengthAdjust="spacing" textLength="166" x="99" y="421.9683">[cumulative data present]</text><polygon fill="#181818" points="810,444.0234,820,448.0234,810,452.0234,814,448.0234" style="stroke:#181818;stroke-width:1.0;"/><line style="stroke:#181818;stroke-width:1.0;" x1="58" x2="816" y1="448.0234" y2="448.0234"/><text fill="#000000" font-family="sans-serif" font-size="13" lengthAdjust="spacing" textLength="264" x="65" y="442.9575">predict_with_ratio(data_cumulative, year)</text><polygon fill="#181818" points="810,480.1563,820,484.1563,810,488.1563,814,484.1563" style="stroke:#181818;stroke-width:1.0;"/><line style="stroke:#181818;stroke-width:1.0;" x1="58" x2="816" y1="484.1563" y2="484.1563"/><text fill="#000000" font-family="sans-serif" font-size="13" lengthAdjust="spacing" textLength="292" x="65" y="479.0903">postprocess(postprocess_subset, year, week)</text><path d="M20,499.1563 L84,499.1563 L84,506.2891 L74,516.2891 L20,516.2891 L20,499.1563 " fill="#EEEEEE" style="stroke:#000000;stroke-width:1.5;"/><rect fill="none" height="75.3984" style="stroke:#000000;stroke-width:1.5;" width="1018" x="20" y="499.1563"/><text fill="#000000" font-family="sans-serif" font-size="13" font-weight="bold" lengthAdjust="spacing" textLength="19" x="35" y="512.2231">alt</text><text fill="#000000" font-family="sans-serif" font-size="11" font-weight="bold" lengthAdjust="spacing" textLength="206" x="99" y="511.3667">[predict higher years or volume]</text><polygon fill="#181818" points="962,533.4219,972,537.4219,962,541.4219,966,537.4219" style="stroke:#181818;stroke-width:1.0;"/><line style="stroke:#181818;stroke-width:1.0;" x1="58" x2="968" y1="537.4219" y2="537.4219"/><text fill="#000000" font-family="sans-serif" font-size="13" lengthAdjust="spacing" textLength="341" x="65" y="532.356">predict_nr_of_students(data, data_latest, year, week)</text><polygon fill="#181818" points="69,562.5547,59,566.5547,69,570.5547,65,566.5547" style="stroke:#181818;stroke-width:1.0;"/><line style="stroke:#181818;stroke-width:1.0;stroke-dasharray:2.0,2.0;" x1="63" x2="978" y1="566.5547" y2="566.5547"/><text fill="#000000" font-family="sans-serif" font-size="13" lengthAdjust="spacing" textLength="29" x="75" y="561.4888">data</text><polygon fill="#181818" points="810,605.6875,820,609.6875,810,613.6875,814,609.6875" style="stroke:#181818;stroke-width:1.0;"/><line style="stroke:#181818;stroke-width:1.0;" x1="53" x2="816" y1="609.6875" y2="609.6875"/><text fill="#000000" font-family="sans-serif" font-size="13" lengthAdjust="spacing" textLength="89" x="60" y="604.6216">save_output()</text><!--MD5=[a05d51dd4c45dfef33004dc6c459f7e3]
@startuml
autonumber

autonumber stop
activate Main
Main -> LoadData: load_configuration(filepath)
activate LoadData
Main <- - LoadData: configuration
deactivate LoadData

Main -> LoadData: load_data(configuration)
activate LoadData
Main <- - LoadData: data
deactivate LoadData

Main -> AvailableData: preprocess()

Main -> DataTotal: initialize()

Main -> AvailableData: set_filtering(programme_filtering, herkomst_filtering)

loop for specified years and weeks
  Main -> AvailableData: predict_nr_of_students(predict_year, predict_week, skip_years)
  activate AvailableData
  AvailableData -> DataTotal: prepare_data(data_to_predict, data_cumulative)
  activate DataTotal
  DataTotal -> DataTotal: numerus_fixus_cap()
  AvailableData <- - DataTotal
  deactivate DataTotal
  Main <- - AvailableData
  deactivate AvailableData

  alt cumulative data present
    Main -> DataTotal: predict_with_ratio(data_cumulative, year)
  end

  Main -> DataTotal: postprocess(postprocess_subset, year, week)

  alt predict higher years or volume
    Main -> HigherYears: predict_nr_of_students(data, data_latest, year, week)
    activate HigherYears
    HigherYears - -> Main: data
    deactivate HigherYears
  end
end

Main -> DataTotal: save_output()

deactivate Main
@enduml

PlantUML version 1.2022.7(Mon Aug 22 17:01:30 UTC 2022)
(GPL source distribution)
Java Runtime: OpenJDK Runtime Environment
JVM: OpenJDK 64-Bit Server VM
Default Encoding: UTF-8
Language: en
Country: null
--></g></svg>