<?xml version="1.0" encoding="UTF-8" standalone="no"?><svg xmlns="http://www.w3.org/2000/svg" xmlns:xlink="http://www.w3.org/1999/xlink" contentStyleType="text/css" height="973px" preserveAspectRatio="none" style="width:1769px;height:973px;background:#FFFFFF;" version="1.1" viewBox="0 0 1769 973" width="1769px" zoomAndPan="magnify"><defs/><g><!--MD5=[38ac67bdb5367a0aef4fdfd83abfd938]
class AvailableData--><g id="elem_AvailableData"><rect codeLine="3" fill="#F1F1F1" height="145.7813" id="AvailableData" rx="2.5" ry="2.5" style="stroke:#181818;stroke-width:0.5;" width="476" x="318.5" y="148"/><ellipse cx="506.75" cy="164" fill="#A9DCDF" rx="11" ry="11" style="stroke:#181818;stroke-width:1.0;"/><path d="M506.8594,159.3438 L505.7031,164.4219 L508.0313,164.4219 L506.8594,159.3438 Z M505.375,157.1094 L508.3594,157.1094 L511.7188,169.5 L509.2656,169.5 L508.5,166.4375 L505.2188,166.4375 L504.4688,169.5 L502.0313,169.5 L505.375,157.1094 Z " fill="#000000"/><text fill="#000000" font-family="sans-serif" font-size="14" font-style="italic" lengthAdjust="spacing" textLength="91" x="527.25" y="168.8467">AvailableData</text><line style="stroke:#181818;stroke-width:0.5;" x1="319.5" x2="793.5" y1="180" y2="180"/><text fill="#000000" font-family="sans-serif" font-size="14" lengthAdjust="spacing" textLength="126" x="324.5" y="196.9951">numerus_fixus_list</text><line style="stroke:#181818;stroke-width:0.5;" x1="319.5" x2="793.5" y1="204.2969" y2="204.2969"/><text fill="#000000" font-family="sans-serif" font-size="14" lengthAdjust="spacing" textLength="101" x="324.5" y="221.292">+preprocess()</text><text fill="#000000" font-family="sans-serif" font-size="14" lengthAdjust="spacing" textLength="444" x="324.5" y="237.5889">+predict_nr_of_students(predict_year, predict_week, skip_years)</text><text fill="#000000" font-family="sans-serif" font-size="14" lengthAdjust="spacing" textLength="346" x="324.5" y="253.8857">#set_year_week(predict_year, predict_week, data)</text><text fill="#000000" font-family="sans-serif" font-size="14" lengthAdjust="spacing" textLength="369" x="324.5" y="270.1826">#set_filtering(programme_filtering, herkomst_filtering)</text><text fill="#000000" font-family="sans-serif" font-size="14" lengthAdjust="spacing" textLength="464" x="324.5" y="286.4795">#get_data_to_predict(data, programme_filtering, herkomst_filtering)</text></g><!--MD5=[3ada0b1ccda01f6af47785107eed7eb1]
class Individual--><g id="elem_Individual"><rect codeLine="12" fill="#F1F1F1" height="178.375" id="Individual" rx="2.5" ry="2.5" style="stroke:#181818;stroke-width:0.5;" width="483" x="7" y="763.5"/><ellipse cx="212.75" cy="779.5" fill="#ADD1B2" rx="11" ry="11" style="stroke:#181818;stroke-width:1.0;"/><path d="M215.7188,785.1406 Q215.1406,785.4375 214.5,785.5781 Q213.8594,785.7344 213.1563,785.7344 Q210.6563,785.7344 209.3281,784.0938 Q208.0156,782.4375 208.0156,779.3125 Q208.0156,776.1875 209.3281,774.5313 Q210.6563,772.875 213.1563,772.875 Q213.8594,772.875 214.5,773.0313 Q215.1563,773.1875 215.7188,773.4844 L215.7188,776.2031 Q215.0938,775.625 214.5,775.3594 Q213.9063,775.0781 213.2813,775.0781 Q211.9375,775.0781 211.25,776.1563 Q210.5625,777.2188 210.5625,779.3125 Q210.5625,781.4063 211.25,782.4844 Q211.9375,783.5469 213.2813,783.5469 Q213.9063,783.5469 214.5,783.2813 Q215.0938,783 215.7188,782.4219 L215.7188,785.1406 Z " fill="#000000"/><text fill="#000000" font-family="sans-serif" font-size="14" lengthAdjust="spacing" textLength="63" x="233.25" y="784.3467">Individual</text><line style="stroke:#181818;stroke-width:0.5;" x1="8" x2="489" y1="795.5" y2="795.5"/><text fill="#000000" font-family="sans-serif" font-size="14" lengthAdjust="spacing" textLength="100" x="13" y="812.4951">data_individual</text><text fill="#000000" font-family="sans-serif" font-size="14" lengthAdjust="spacing" textLength="104" x="13" y="828.792">data_distances</text><line style="stroke:#181818;stroke-width:0.5;" x1="8" x2="489" y1="836.0938" y2="836.0938"/><text fill="#000000" font-family="sans-serif" font-size="14" lengthAdjust="spacing" textLength="101" x="13" y="853.0889">+preprocess()</text><text fill="#000000" font-family="sans-serif" font-size="14" lengthAdjust="spacing" textLength="465" x="13" y="869.3857">+predict_nr_of_students(predict_year, predict_week, skip_years=0)</text><text fill="#000000" font-family="sans-serif" font-size="14" lengthAdjust="spacing" textLength="337" x="13" y="885.6826">+predict_applicant(data, data_cumulative=None)</text><text fill="#000000" font-family="sans-serif" font-size="14" lengthAdjust="spacing" textLength="126" x="13" y="901.9795">-create_ratio(data)</text><text fill="#000000" font-family="sans-serif" font-size="14" lengthAdjust="spacing" textLength="195" x="13" y="918.2764">+transform_data_individual()</text><text fill="#000000" font-family="sans-serif" font-size="14" lengthAdjust="spacing" textLength="471" x="13" y="934.5732">+predict_with_sarima(row, data_exog=None, already_printed=False)</text></g><!--MD5=[a59af499038a2f1bdfc6f06770a2ce4c]
class Cumulative--><g id="elem_Cumulative"><rect codeLine="23" fill="#F1F1F1" height="227.2656" id="Cumulative" rx="2.5" ry="2.5" style="stroke:#181818;stroke-width:0.5;" width="532" x="535.5" y="739"/><ellipse cx="759.25" cy="755" fill="#ADD1B2" rx="11" ry="11" style="stroke:#181818;stroke-width:1.0;"/><path d="M762.2188,760.6406 Q761.6406,760.9375 761,761.0781 Q760.3594,761.2344 759.6563,761.2344 Q757.1563,761.2344 755.8281,759.5938 Q754.5156,757.9375 754.5156,754.8125 Q754.5156,751.6875 755.8281,750.0313 Q757.1563,748.375 759.6563,748.375 Q760.3594,748.375 761,748.5313 Q761.6563,748.6875 762.2188,748.9844 L762.2188,751.7031 Q761.5938,751.125 761,750.8594 Q760.4063,750.5781 759.7813,750.5781 Q758.4375,750.5781 757.75,751.6563 Q757.0625,752.7188 757.0625,754.8125 Q757.0625,756.9063 757.75,757.9844 Q758.4375,759.0469 759.7813,759.0469 Q760.4063,759.0469 761,758.7813 Q761.5938,758.5 762.2188,757.9219 L762.2188,760.6406 Z " fill="#000000"/><text fill="#000000" font-family="sans-serif" font-size="14" lengthAdjust="spacing" textLength="76" x="779.75" y="759.8467">Cumulative</text><line style="stroke:#181818;stroke-width:0.5;" x1="536.5" x2="1066.5" y1="771" y2="771"/><text fill="#000000" font-family="sans-serif" font-size="14" lengthAdjust="spacing" textLength="111" x="541.5" y="787.9951">data_cumulative</text><text fill="#000000" font-family="sans-serif" font-size="14" lengthAdjust="spacing" textLength="131" x="541.5" y="804.292">data_studentcount</text><line style="stroke:#181818;stroke-width:0.5;" x1="536.5" x2="1066.5" y1="811.5938" y2="811.5938"/><text fill="#000000" font-family="sans-serif" font-size="14" lengthAdjust="spacing" textLength="101" x="541.5" y="828.5889">+preprocess()</text><text fill="#000000" font-family="sans-serif" font-size="14" lengthAdjust="spacing" textLength="209" x="541.5" y="844.8857">-cast_string_to_float(data, key)</text><text fill="#000000" font-family="sans-serif" font-size="14" lengthAdjust="spacing" textLength="465" x="541.5" y="861.1826">+predict_nr_of_students(predict_year, predict_week, skip_years=0)</text><text fill="#000000" font-family="sans-serif" font-size="14" lengthAdjust="spacing" textLength="203" x="541.5" y="877.4795">+get_transformed_data(data)</text><text fill="#000000" font-family="sans-serif" font-size="14" lengthAdjust="spacing" textLength="113" x="541.5" y="893.7764">+prepare_data()</text><text fill="#000000" font-family="sans-serif" font-size="14" lengthAdjust="spacing" textLength="343" x="541.5" y="910.0732">+predict_with_sarima(row, already_printed=False)</text><text fill="#000000" font-family="sans-serif" font-size="14" lengthAdjust="spacing" textLength="503" x="541.5" y="926.3701">+predict_students_with_preapplicants(data, predictions, data_to_predict)</text><text fill="#000000" font-family="sans-serif" font-size="14" lengthAdjust="spacing" textLength="520" x="541.5" y="942.667">-predict_with_xgboost_extra_year(train, test, data_to_predict, replace_mask)</text><text fill="#000000" font-family="sans-serif" font-size="14" lengthAdjust="spacing" textLength="226" x="541.5" y="958.9639">-predict_with_xgboost(train, test)</text></g><!--MD5=[5a7271acda2989c7627cb17169cd4823]
class BothDatasets--><g id="elem_BothDatasets"><rect codeLine="37" fill="#F1F1F1" height="96.8906" id="BothDatasets" rx="2.5" ry="2.5" style="stroke:#181818;stroke-width:0.5;" width="477" x="282" y="468"/><ellipse cx="468.75" cy="484" fill="#ADD1B2" rx="11" ry="11" style="stroke:#181818;stroke-width:1.0;"/><path d="M471.7188,489.6406 Q471.1406,489.9375 470.5,490.0781 Q469.8594,490.2344 469.1563,490.2344 Q466.6563,490.2344 465.3281,488.5938 Q464.0156,486.9375 464.0156,483.8125 Q464.0156,480.6875 465.3281,479.0313 Q466.6563,477.375 469.1563,477.375 Q469.8594,477.375 470.5,477.5313 Q471.1563,477.6875 471.7188,477.9844 L471.7188,480.7031 Q471.0938,480.125 470.5,479.8594 Q469.9063,479.5781 469.2813,479.5781 Q467.9375,479.5781 467.25,480.6563 Q466.5625,481.7188 466.5625,483.8125 Q466.5625,485.9063 467.25,486.9844 Q467.9375,488.0469 469.2813,488.0469 Q469.9063,488.0469 470.5,487.7813 Q471.0938,487.5 471.7188,486.9219 L471.7188,489.6406 Z " fill="#000000"/><text fill="#000000" font-family="sans-serif" font-size="14" lengthAdjust="spacing" textLength="95" x="489.25" y="488.8467">BothDatasets</text><line style="stroke:#181818;stroke-width:0.5;" x1="283" x2="758" y1="500" y2="500"/><line style="stroke:#181818;stroke-width:0.5;" x1="283" x2="758" y1="508" y2="508"/><text fill="#000000" font-family="sans-serif" font-size="14" lengthAdjust="spacing" textLength="101" x="288" y="524.9951">+preprocess()</text><text fill="#000000" font-family="sans-serif" font-size="14" lengthAdjust="spacing" textLength="465" x="288" y="541.292">+predict_nr_of_students(predict_year, predict_week, skip_years=0)</text><text fill="#000000" font-family="sans-serif" font-size="14" lengthAdjust="spacing" textLength="182" x="288" y="557.5889">+predict_with_sarima(row)</text></g><!--MD5=[84718776d214be480e4c259efcb737fc]
class Main--><g id="elem_Main"><rect codeLine="43" fill="#F1F1F1" height="80.5938" id="Main" rx="2.5" ry="2.5" style="stroke:#181818;stroke-width:0.5;" width="223" x="908" y="7"/><ellipse cx="999.25" cy="23" fill="#ADD1B2" rx="11" ry="11" style="stroke:#181818;stroke-width:1.0;"/><path d="M1002.2188,28.6406 Q1001.6406,28.9375 1001,29.0781 Q1000.3594,29.2344 999.6563,29.2344 Q997.1563,29.2344 995.8281,27.5938 Q994.5156,25.9375 994.5156,22.8125 Q994.5156,19.6875 995.8281,18.0313 Q997.1563,16.375 999.6563,16.375 Q1000.3594,16.375 1001,16.5313 Q1001.6563,16.6875 1002.2188,16.9844 L1002.2188,19.7031 Q1001.5938,19.125 1001,18.8594 Q1000.4063,18.5781 999.7813,18.5781 Q998.4375,18.5781 997.75,19.6563 Q997.0625,20.7188 997.0625,22.8125 Q997.0625,24.9063 997.75,25.9844 Q998.4375,27.0469 999.7813,27.0469 Q1000.4063,27.0469 1001,26.7813 Q1001.5938,26.5 1002.2188,25.9219 L1002.2188,28.6406 Z " fill="#000000"/><text fill="#000000" font-family="sans-serif" font-size="14" lengthAdjust="spacing" textLength="32" x="1019.75" y="27.8467">Main</text><line style="stroke:#181818;stroke-width:0.5;" x1="909" x2="1130" y1="39" y2="39"/><line style="stroke:#181818;stroke-width:0.5;" x1="909" x2="1130" y1="47" y2="47"/><text fill="#000000" font-family="sans-serif" font-size="14" lengthAdjust="spacing" textLength="211" x="914" y="63.9951">-parse_arguments(arguments)</text><text fill="#000000" font-family="sans-serif" font-size="14" lengthAdjust="spacing" textLength="45" x="914" y="80.292">+run()</text></g><!--MD5=[5c67b3d5c7e2298e7d49eb7ff66e4916]
class LoadData--><g id="elem_LoadData"><rect codeLine="48" fill="#F1F1F1" height="80.5938" id="LoadData" rx="2.5" ry="2.5" style="stroke:#181818;stroke-width:0.5;" width="217" x="830" y="180.5"/><ellipse cx="901.75" cy="196.5" fill="#DA70D6" rx="11" ry="11" style="stroke:#181818;stroke-width:1.0;"/><path d="M901.5469,192.1719 L901.5469,195.7969 L902.5469,195.7969 Q903.75,195.7969 904.2344,195.3906 Q904.7188,194.9844 904.7188,193.9844 Q904.7188,192.9844 904.2344,192.5781 Q903.75,192.1719 902.5469,192.1719 L901.5469,192.1719 Z M899.0938,190.1094 L902.4531,190.1094 Q905.0156,190.1094 906.1406,191.0313 Q907.2656,191.9375 907.2656,193.9844 Q907.2656,196.0313 906.1406,196.9531 Q905.0156,197.8594 902.4531,197.8594 L901.5469,197.8594 L901.5469,202.5 L899.0938,202.5 L899.0938,190.1094 Z " fill="#000000"/><text fill="#000000" font-family="sans-serif" font-size="14" lengthAdjust="spacing" textLength="65" x="922.25" y="201.3467">LoadData</text><line style="stroke:#181818;stroke-width:0.5;" x1="831" x2="1046" y1="212.5" y2="212.5"/><line style="stroke:#181818;stroke-width:0.5;" x1="831" x2="1046" y1="220.5" y2="220.5"/><text fill="#000000" font-family="sans-serif" font-size="14" lengthAdjust="spacing" textLength="205" x="836" y="237.4951">+load_configuration(file_path)</text><text fill="#000000" font-family="sans-serif" font-size="14" lengthAdjust="spacing" textLength="178" x="836" y="253.792">+load_data(configuration)</text></g><!--MD5=[7bffaae63a17df6633a050b568724880]
class DataTotal--><g id="elem_DataTotal"><rect codeLine="53" fill="#F1F1F1" height="325.0469" id="DataTotal" rx="2.5" ry="2.5" style="stroke:#181818;stroke-width:0.5;" width="469" x="866" y="354"/><ellipse cx="1063.25" cy="370" fill="#ADD1B2" rx="11" ry="11" style="stroke:#181818;stroke-width:1.0;"/><path d="M1066.2188,375.6406 Q1065.6406,375.9375 1065,376.0781 Q1064.3594,376.2344 1063.6563,376.2344 Q1061.1563,376.2344 1059.8281,374.5938 Q1058.5156,372.9375 1058.5156,369.8125 Q1058.5156,366.6875 1059.8281,365.0313 Q1061.1563,363.375 1063.6563,363.375 Q1064.3594,363.375 1065,363.5313 Q1065.6563,363.6875 1066.2188,363.9844 L1066.2188,366.7031 Q1065.5938,366.125 1065,365.8594 Q1064.4063,365.5781 1063.7813,365.5781 Q1062.4375,365.5781 1061.75,366.6563 Q1061.0625,367.7188 1061.0625,369.8125 Q1061.0625,371.9063 1061.75,372.9844 Q1062.4375,374.0469 1063.7813,374.0469 Q1064.4063,374.0469 1065,373.7813 Q1065.5938,373.5 1066.2188,372.9219 L1066.2188,375.6406 Z " fill="#000000"/><text fill="#000000" font-family="sans-serif" font-size="14" lengthAdjust="spacing" textLength="66" x="1083.75" y="374.8467">DataTotal</text><line style="stroke:#181818;stroke-width:0.5;" x1="867" x2="1334" y1="386" y2="386"/><text fill="#000000" font-family="sans-serif" font-size="14" lengthAdjust="spacing" textLength="75" x="872" y="402.9951">data_latest</text><text fill="#000000" font-family="sans-serif" font-size="14" lengthAdjust="spacing" textLength="130" x="872" y="419.292">ensemble_weights</text><text fill="#000000" font-family="sans-serif" font-size="14" lengthAdjust="spacing" textLength="131" x="872" y="435.5889">data_studentcount</text><text fill="#000000" font-family="sans-serif" font-size="14" lengthAdjust="spacing" textLength="126" x="872" y="451.8857">numerus_fixus_list</text><line style="stroke:#181818;stroke-width:0.5;" x1="867" x2="1334" y1="459.1875" y2="459.1875"/><text fill="#000000" font-family="sans-serif" font-size="14" lengthAdjust="spacing" textLength="76" x="872" y="476.1826">+initialize()</text><text fill="#000000" font-family="sans-serif" font-size="14" lengthAdjust="spacing" textLength="457" x="872" y="492.4795">+add_predicted_preregistrations(data, predicted_preregistrations)</text><text fill="#000000" font-family="sans-serif" font-size="14" lengthAdjust="spacing" textLength="147" x="872" y="508.7764">-numerus_fixus_cap()</text><text fill="#000000" font-family="sans-serif" font-size="14" lengthAdjust="spacing" textLength="311" x="872" y="525.0732">+prepare_data(data, data_cumulative=None)</text><text fill="#000000" font-family="sans-serif" font-size="14" lengthAdjust="spacing" textLength="345" x="872" y="541.3701">+predict_with_ratio(data_cumulative, predict_year)</text><text fill="#000000" font-family="sans-serif" font-size="14" lengthAdjust="spacing" textLength="443" x="872" y="557.667">+postprocess(postprocess_subset, predict_year, predict_week)</text><text fill="#000000" font-family="sans-serif" font-size="14" lengthAdjust="spacing" textLength="201" x="872" y="573.9639">-create_ensemble_columns()</text><text fill="#000000" font-family="sans-serif" font-size="14" lengthAdjust="spacing" textLength="193" x="872" y="590.2607">-get_normal_ensemble(row)</text><text fill="#000000" font-family="sans-serif" font-size="14" lengthAdjust="spacing" textLength="165" x="872" y="606.5576">-create_error_columns()</text><text fill="#000000" font-family="sans-serif" font-size="14" lengthAdjust="spacing" textLength="218" x="872" y="622.8545">-mean_absolute_error(row, key)</text><text fill="#000000" font-family="sans-serif" font-size="14" lengthAdjust="spacing" textLength="305" x="872" y="639.1514">-mean_absolute_percentage_error(row, key)</text><text fill="#000000" font-family="sans-serif" font-size="14" lengthAdjust="spacing" textLength="133" x="872" y="655.4482">+ready_new_data()</text><text fill="#000000" font-family="sans-serif" font-size="14" lengthAdjust="spacing" textLength="273" x="872" y="671.7451">+save_output(student_year_prediction)</text></g><!--MD5=[3ede8d5be2d305f0db9d978c5f93f08b]
class HigherYears--><g id="elem_HigherYears"><rect codeLine="73" fill="#F1F1F1" height="113.1875" id="HigherYears" rx="2.5" ry="2.5" style="stroke:#181818;stroke-width:0.5;" width="609" x="1153" y="164.5"/><ellipse cx="1411.25" cy="180.5" fill="#ADD1B2" rx="11" ry="11" style="stroke:#181818;stroke-width:1.0;"/><path d="M1414.2188,186.1406 Q1413.6406,186.4375 1413,186.5781 Q1412.3594,186.7344 1411.6563,186.7344 Q1409.1563,186.7344 1407.8281,185.0938 Q1406.5156,183.4375 1406.5156,180.3125 Q1406.5156,177.1875 1407.8281,175.5313 Q1409.1563,173.875 1411.6563,173.875 Q1412.3594,173.875 1413,174.0313 Q1413.6563,174.1875 1414.2188,174.4844 L1414.2188,177.2031 Q1413.5938,176.625 1413,176.3594 Q1412.4063,176.0781 1411.7813,176.0781 Q1410.4375,176.0781 1409.75,177.1563 Q1409.0625,178.2188 1409.0625,180.3125 Q1409.0625,182.4063 1409.75,183.4844 Q1410.4375,184.5469 1411.7813,184.5469 Q1412.4063,184.5469 1413,184.2813 Q1413.5938,184 1414.2188,183.4219 L1414.2188,186.1406 Z " fill="#000000"/><text fill="#000000" font-family="sans-serif" font-size="14" lengthAdjust="spacing" textLength="84" x="1431.75" y="185.3467">HigherYears</text><line style="stroke:#181818;stroke-width:0.5;" x1="1154" x2="1761" y1="196.5" y2="196.5"/><text fill="#000000" font-family="sans-serif" font-size="14" lengthAdjust="spacing" textLength="236" x="1159" y="213.4951">data_student_numbers_first_years</text><text fill="#000000" font-family="sans-serif" font-size="14" lengthAdjust="spacing" textLength="255" x="1159" y="229.792">data_student_numbers_higher_years</text><text fill="#000000" font-family="sans-serif" font-size="14" lengthAdjust="spacing" textLength="217" x="1159" y="246.0889">data_student_numbers_volume</text><line style="stroke:#181818;stroke-width:0.5;" x1="1154" x2="1761" y1="253.3906" y2="253.3906"/><text fill="#000000" font-family="sans-serif" font-size="14" lengthAdjust="spacing" textLength="597" x="1159" y="270.3857">predict_nr_of_students(first_year_data, all_data, predict_year, predict_week, skip_years)</text></g><!--MD5=[e70b693ad7a1a5911c77b06242f0d1ba]
link BothDatasets to Individual--><g id="link_BothDatasets_Individual"><path codeLine="80" d="M481.53,565.35 C440.49,615.75 374.86,696.34 323.69,759.17 " fill="none" id="BothDatasets-to-Individual" style="stroke:#181818;stroke-width:1.0;"/><polygon fill="#181818" points="320.34,763.28,329.1198,758.8173,323.493,759.3994,322.9109,753.7726,320.34,763.28" style="stroke:#181818;stroke-width:1.0;"/></g><!--MD5=[0ee55a303e73ece4e1d80f78c1858163]
link BothDatasets to Cumulative--><g id="link_BothDatasets_Cumulative"><path codeLine="81" d="M560.76,565.35 C597.81,609.39 654.26,676.49 703.19,734.65 " fill="none" id="BothDatasets-to-Cumulative" style="stroke:#181818;stroke-width:1.0;"/><polygon fill="#181818" points="706.7,738.82,703.9766,729.3552,703.485,734.9906,697.8496,734.4991,706.7,738.82" style="stroke:#181818;stroke-width:1.0;"/></g><!--MD5=[57b442b2fc6b1ac70f6ea7d06db0b79c]
reverse link AvailableData to BothDatasets--><g id="link_AvailableData_BothDatasets"><path codeLine="83" d="M545.19,314.24 C538.93,365.25 531.41,426.51 526.33,467.94 " fill="none" id="AvailableData-backto-BothDatasets" style="stroke:#181818;stroke-width:1.0;"/><polygon fill="none" points="538.26,313.17,547.65,294.17,552.16,314.88,538.26,313.17" style="stroke:#181818;stroke-width:1.0;"/></g><!--MD5=[55ca84cd95cfe9d38a91d09b0ed146b2]
reverse link AvailableData to Individual--><g id="link_AvailableData_Individual"><path codeLine="84" d="M310.09,305.81 C292.51,319.54 276.87,335.49 264.5,354 C182.62,476.5 202.71,656.5 225.26,763.08 " fill="none" id="AvailableData-backto-Individual" style="stroke:#181818;stroke-width:1.0;"/><polygon fill="none" points="306.06,300.08,326.37,294.05,314.25,311.44,306.06,300.08" style="stroke:#181818;stroke-width:1.0;"/></g><!--MD5=[3c8d6c3c271b526723fbfb86a21f1215]
reverse link AvailableData to Cumulative--><g id="link_AvailableData_Cumulative"><path codeLine="85" d="M735.85,306.74 C751.74,320.5 765.82,336.2 776.5,354 C846.51,470.71 839.89,631.94 824.4,738.84 " fill="none" id="AvailableData-backto-Cumulative" style="stroke:#181818;stroke-width:1.0;"/><polygon fill="none" points="731.34,312.09,720.11,294.13,740.09,301.17,731.34,312.09" style="stroke:#181818;stroke-width:1.0;"/></g><!--MD5=[0b5b0b41facf152e3ccfb44c12da306d]
link AvailableData to DataTotal--><g id="link_AvailableData_DataTotal"><path codeLine="87" d="M718.77,294.08 C758.38,312.73 800.33,333.39 838.5,354 C846,358.05 853.57,362.22 861.19,366.48 " fill="none" id="AvailableData-to-DataTotal" style="stroke:#181818;stroke-width:1.0;"/><polygon fill="#181818" points="865.94,369.14,860.0458,361.2496,861.5787,366.6948,856.1335,368.2277,865.94,369.14" style="stroke:#181818;stroke-width:1.0;"/></g><!--MD5=[72d168b771825e3bc595352df55d0ed3]
link Main to LoadData--><g id="link_Main_LoadData"><path codeLine="89" d="M1000.71,88.28 C988.34,114.47 972.14,148.78 959.37,175.82 " fill="none" id="Main-to-LoadData" style="stroke:#181818;stroke-width:1.0;stroke-dasharray:7.0,7.0;"/><polygon fill="#181818" points="957.18,180.44,964.653,174.0248,959.3241,175.9231,957.4259,170.5942,957.18,180.44" style="stroke:#181818;stroke-width:1.0;"/></g><!--MD5=[ce82077636d2465c3fe87a9324bb0694]
link Main to AvailableData--><g id="link_Main_AvailableData"><path codeLine="90" d="M912.7,88.06 C866.03,105.35 809.74,126.2 755.82,146.17 " fill="none" id="Main-to-AvailableData" style="stroke:#181818;stroke-width:1.0;"/><polygon fill="#181818" points="750.94,147.98,760.7699,148.5915,755.6263,146.2369,757.9809,141.0934,750.94,147.98" style="stroke:#181818;stroke-width:1.0;"/></g><!--MD5=[ebadd66df594bc644f49586196be3868]
link Main to DataTotal--><g id="link_Main_DataTotal"><path codeLine="91" d="M1040.99,88.06 C1049.72,105.88 1059.02,127.49 1064.5,148 C1081.69,212.31 1090.86,284.9 1095.68,348.49 " fill="none" id="Main-to-DataTotal" style="stroke:#181818;stroke-width:1.0;stroke-dasharray:7.0,7.0;"/><polygon fill="#181818" points="1096.08,353.83,1099.4003,344.5577,1095.7085,348.8438,1091.4224,345.152,1096.08,353.83" style="stroke:#181818;stroke-width:1.0;"/></g><!--MD5=[1a240eb08749f2f76a27e46607beea76]
link Main to HigherYears--><g id="link_Main_HigherYears"><path codeLine="93" d="M1120.54,88.06 C1176.92,110.14 1248.18,138.04 1310.63,162.49 " fill="none" id="Main-to-HigherYears" style="stroke:#181818;stroke-width:1.0;"/><polygon fill="#181818" points="1315.49,164.4,1308.5559,157.4059,1310.8311,162.585,1305.6519,164.8602,1315.49,164.4" style="stroke:#181818;stroke-width:1.0;"/></g><!--MD5=[98bc0a0d76d9f33e902f7a85a732486d]
@startuml
skinparam classAttributeIconSize 0

abstract class AvailableData {
  numerus_fixus_list
  +preprocess()
  +predict_nr_of_students(predict_year, predict_week, skip_years)
  #set_year_week(predict_year, predict_week, data)
  #set_filtering(programme_filtering, herkomst_filtering)
  #get_data_to_predict(data, programme_filtering, herkomst_filtering)
}

class Individual {
  data_individual
  data_distances
  +preprocess()
  +predict_nr_of_students(predict_year, predict_week, skip_years=0)
  +predict_applicant(data, data_cumulative=None)
  -create_ratio(data)
  +transform_data_individual()
  +predict_with_sarima(row, data_exog=None, already_printed=False)
}

class Cumulative {
  data_cumulative
  data_studentcount
  +preprocess()
  -cast_string_to_float(data, key)
  +predict_nr_of_students(predict_year, predict_week, skip_years=0)
  +get_transformed_data(data)
  +prepare_data()
  +predict_with_sarima(row, already_printed=False)
  +predict_students_with_preapplicants(data, predictions, data_to_predict)
  -predict_with_xgboost_extra_year(train, test, data_to_predict, replace_mask)
  -predict_with_xgboost(train, test)
}

class BothDatasets {
  +preprocess()
  +predict_nr_of_students(predict_year, predict_week, skip_years=0)
  +predict_with_sarima(row)
}

class Main {
  -parse_arguments(arguments)
  +run()
}

class LoadData << (P,orchid) >> {
  +load_configuration(file_path)
  +load_data(configuration)
}

class DataTotal {
  data_latest
  ensemble_weights
  data_studentcount
  numerus_fixus_list
  +initialize()
  +add_predicted_preregistrations(data, predicted_preregistrations)
  -numerus_fixus_cap()
  +prepare_data(data, data_cumulative=None)
  +predict_with_ratio(data_cumulative, predict_year)
  +postprocess(postprocess_subset, predict_year, predict_week)
  -create_ensemble_columns()
  -get_normal_ensemble(row)
  -create_error_columns()
  -mean_absolute_error(row, key)
  -mean_absolute_percentage_error(row, key)
  +ready_new_data()
  +save_output(student_year_prediction)
}

class HigherYears {
  data_student_numbers_first_years
  data_student_numbers_higher_years
  data_student_numbers_volume
  predict_nr_of_students(first_year_data, all_data, predict_year, predict_week, skip_years)
}

BothDatasets -down-> Individual
BothDatasets -down-> Cumulative

AvailableData <|- - BothDatasets
AvailableData <|- - Individual
AvailableData <|- - Cumulative

AvailableData - -> DataTotal

Main ..> LoadData
Main - -> AvailableData
Main ..> DataTotal

Main - -> HigherYears
@enduml

PlantUML version 1.2022.7(Mon Aug 22 17:01:30 UTC 2022)
(GPL source distribution)
Java Runtime: OpenJDK Runtime Environment
JVM: OpenJDK 64-Bit Server VM
Default Encoding: UTF-8
Language: en
Country: null
--></g></svg>