<?xml version="1.0" encoding="UTF-8" standalone="no"?><svg xmlns="http://www.w3.org/2000/svg" xmlns:xlink="http://www.w3.org/1999/xlink" contentStyleType="text/css" height="1143px" preserveAspectRatio="none" style="width:661px;height:1143px;background:#FFFFFF;" version="1.1" viewBox="0 0 661 1143" width="661px" zoomAndPan="magnify"><defs/><g><ellipse cx="308" cy="20" fill="#222222" rx="10" ry="10" style="stroke:#222222;stroke-width:1.0;"/><rect fill="#98FB98" height="33.9688" rx="12.5" ry="12.5" style="stroke:#181818;stroke-width:0.5;" width="137" x="239.5" y="50"/><text fill="#000000" font-family="sans-serif" font-size="12" lengthAdjust="spacing" textLength="117" x="249.5" y="71.1387">Load configuration</text><rect fill="#98FB98" height="33.9688" rx="12.5" ry="12.5" style="stroke:#181818;stroke-width:0.5;" width="83" x="266.5" y="103.9688"/><text fill="#000000" font-family="sans-serif" font-size="12" lengthAdjust="spacing" textLength="63" x="276.5" y="125.1074">Load data</text><rect fill="#98FB98" height="33.9688" rx="12.5" ry="12.5" style="stroke:#181818;stroke-width:0.5;" width="297" x="159.5" y="157.9375"/><text fill="#000000" font-family="sans-serif" font-size="12" lengthAdjust="spacing" textLength="277" x="169.5" y="179.0762">Patch columnnames based on configuration</text><rect fill="#555555" height="6" rx="2.5" ry="2.5" style="stroke:#555555;stroke-width:1.0;" width="437" x="89.5" y="211.9063"/><rect fill="#FFFF00" height="33.9688" rx="12.5" ry="12.5" style="stroke:#181818;stroke-width:0.5;" width="186" x="103.5" y="237.9063"/><text fill="#000000" font-family="sans-serif" font-size="12" lengthAdjust="spacing" textLength="166" x="113.5" y="259.0449">Preprocess individual data</text><rect fill="#ADD8E6" height="33.9688" rx="12.5" ry="12.5" style="stroke:#181818;stroke-width:0.5;" width="195" x="317.5" y="237.9063"/><text fill="#000000" font-family="sans-serif" font-size="12" lengthAdjust="spacing" textLength="175" x="327.5" y="259.0449">Preprocess cumulative data</text><rect fill="#555555" height="6" rx="2.5" ry="2.5" style="stroke:#555555;stroke-width:1.0;" width="437" x="89.5" y="291.875"/><rect fill="#98FB98" height="33.9688" rx="12.5" ry="12.5" style="stroke:#181818;stroke-width:0.5;" width="344" x="136" y="317.875"/><text fill="#000000" font-family="sans-serif" font-size="12" lengthAdjust="spacing" textLength="324" x="146" y="339.0137">Filter programme and origin based on configuration</text><rect fill="#FFFF00" height="33.9688" rx="12.5" ry="12.5" style="stroke:#181818;stroke-width:0.5;" width="158" x="229" y="459.8438"/><text fill="#000000" font-family="sans-serif" font-size="12" lengthAdjust="spacing" textLength="138" x="239" y="480.9824">Predict preapplication</text><rect fill="#555555" height="6" rx="2.5" ry="2.5" style="stroke:#555555;stroke-width:1.0;" width="594" x="11" y="513.8125"/><rect fill="#FFFF00" height="33.9688" rx="12.5" ry="12.5" style="stroke:#181818;stroke-width:0.5;" width="209" x="23" y="539.8125"/><text fill="#000000" font-family="sans-serif" font-size="12" lengthAdjust="spacing" textLength="189" x="33" y="560.9512">SARIMA with individual dataset</text><rect fill="#ADD8E6" height="33.9688" rx="12.5" ry="12.5" style="stroke:#181818;stroke-width:0.5;" width="333" x="260" y="539.8125"/><text fill="#000000" font-family="sans-serif" font-size="12" lengthAdjust="spacing" textLength="313" x="270" y="560.9512">SARIMA with cumulative dataset for pre-applicants</text><rect fill="#555555" height="6" rx="2.5" ry="2.5" style="stroke:#555555;stroke-width:1.0;" width="594" x="11" y="593.7813"/><rect fill="#00BFFF" height="33.9688" rx="12.5" ry="12.5" style="stroke:#181818;stroke-width:0.5;" width="399" x="108.5" y="619.7813"/><text fill="#000000" font-family="sans-serif" font-size="12" lengthAdjust="spacing" textLength="379" x="118.5" y="640.9199">Predict nr of students with XGBoost based on pre-applicants</text><rect fill="#98FB98" height="33.9688" rx="12.5" ry="12.5" style="stroke:#181818;stroke-width:0.5;" width="135" x="240.5" y="673.75"/><text fill="#000000" font-family="sans-serif" font-size="12" lengthAdjust="spacing" textLength="115" x="250.5" y="694.8887">Numerus fixus cap</text><rect fill="#ADD8E6" height="33.9688" rx="12.5" ry="12.5" style="stroke:#181818;stroke-width:0.5;" width="126" x="245" y="729.2188"/><text fill="#000000" font-family="sans-serif" font-size="12" lengthAdjust="spacing" textLength="106" x="255" y="750.3574">Predict with ratio</text><rect fill="#98FB98" height="33.9688" rx="12.5" ry="12.5" style="stroke:#181818;stroke-width:0.5;" width="277" x="169.5" y="783.1875"/><text fill="#000000" font-family="sans-serif" font-size="12" lengthAdjust="spacing" textLength="257" x="179.5" y="804.3262">Replace latest data with forecasted data</text><rect fill="#98FB98" height="33.9688" rx="12.5" ry="12.5" style="stroke:#181818;stroke-width:0.5;" width="117" x="249.5" y="837.1563"/><text fill="#000000" font-family="sans-serif" font-size="12" lengthAdjust="spacing" textLength="97" x="259.5" y="858.2949">Postprocessing</text><rect fill="#DA70D6" height="33.9688" rx="12.5" ry="12.5" style="stroke:#181818;stroke-width:0.5;" width="394" x="111" y="891.125"/><text fill="#000000" font-family="sans-serif" font-size="12" lengthAdjust="spacing" textLength="374" x="121" y="912.2637">Predict nr of higher years students using XGBoost and ratio</text><polygon fill="#F1F1F1" points="308,415.8438,320,427.8438,308,439.8438,296,427.8438,308,415.8438" style="stroke:#181818;stroke-width:0.5;"/><polygon fill="#F1F1F1" points="243,945.0938,373,945.0938,385,957.0938,373,969.0938,243,969.0938,231,957.0938,243,945.0938" style="stroke:#181818;stroke-width:0.5;"/><text fill="#000000" font-family="sans-serif" font-size="11" lengthAdjust="spacing" textLength="14" x="312" y="979.3042">no</text><text fill="#000000" font-family="sans-serif" font-size="11" lengthAdjust="spacing" textLength="130" x="243" y="960.9019">Forecast another week</text><text fill="#000000" font-family="sans-serif" font-size="11" lengthAdjust="spacing" textLength="20" x="385" y="954.4995">yes</text><polygon fill="#F1F1F1" points="308,371.8438,320,383.8438,308,395.8438,296,383.8438,308,371.8438" style="stroke:#181818;stroke-width:0.5;"/><polygon fill="#F1F1F1" points="245,1000.8042,371,1000.8042,383,1012.8042,371,1024.8042,245,1024.8042,233,1012.8042,245,1000.8042" style="stroke:#181818;stroke-width:0.5;"/><text fill="#000000" font-family="sans-serif" font-size="11" lengthAdjust="spacing" textLength="14" x="312" y="1035.0146">no</text><text fill="#000000" font-family="sans-serif" font-size="11" lengthAdjust="spacing" textLength="126" x="245" y="1016.6123">Forecast another year</text><text fill="#000000" font-family="sans-serif" font-size="11" lengthAdjust="spacing" textLength="20" x="383" y="1010.21">yes</text><rect fill="#98FB98" height="33.9688" rx="12.5" ry="12.5" style="stroke:#181818;stroke-width:0.5;" width="126" x="245" y="1056.5146"/><text fill="#000000" font-family="sans-serif" font-size="12" lengthAdjust="spacing" textLength="106" x="255" y="1077.6533">Save final output</text><ellipse cx="308" cy="1121.4834" fill="none" rx="11" ry="11" style="stroke:#222222;stroke-width:1.0;"/><ellipse cx="308" cy="1121.4834" fill="#222222" rx="6" ry="6" style="stroke:#111111;stroke-width:1.0;"/><line style="stroke:#181818;stroke-width:1.0;" x1="308" x2="308" y1="30" y2="50"/><polygon fill="#181818" points="304,40,308,50,312,40,308,44" style="stroke:#181818;stroke-width:1.0;"/><line style="stroke:#181818;stroke-width:1.0;" x1="308" x2="308" y1="83.9688" y2="103.9688"/><polygon fill="#181818" points="304,93.9688,308,103.9688,312,93.9688,308,97.9688" style="stroke:#181818;stroke-width:1.0;"/><line style="stroke:#181818;stroke-width:1.0;" x1="308" x2="308" y1="137.9375" y2="157.9375"/><polygon fill="#181818" points="304,147.9375,308,157.9375,312,147.9375,308,151.9375" style="stroke:#181818;stroke-width:1.0;"/><line style="stroke:#181818;stroke-width:1.0;" x1="196.5" x2="196.5" y1="217.9063" y2="237.9063"/><polygon fill="#181818" points="192.5,227.9063,196.5,237.9063,200.5,227.9063,196.5,231.9063" style="stroke:#181818;stroke-width:1.0;"/><line style="stroke:#181818;stroke-width:1.0;" x1="415" x2="415" y1="217.9063" y2="237.9063"/><polygon fill="#181818" points="411,227.9063,415,237.9063,419,227.9063,415,231.9063" style="stroke:#181818;stroke-width:1.0;"/><line style="stroke:#181818;stroke-width:1.0;" x1="196.5" x2="196.5" y1="271.875" y2="291.875"/><polygon fill="#181818" points="192.5,281.875,196.5,291.875,200.5,281.875,196.5,285.875" style="stroke:#181818;stroke-width:1.0;"/><line style="stroke:#181818;stroke-width:1.0;" x1="415" x2="415" y1="271.875" y2="291.875"/><polygon fill="#181818" points="411,281.875,415,291.875,419,281.875,415,285.875" style="stroke:#181818;stroke-width:1.0;"/><line style="stroke:#181818;stroke-width:1.0;" x1="308" x2="308" y1="191.9063" y2="211.9063"/><polygon fill="#181818" points="304,201.9063,308,211.9063,312,201.9063,308,205.9063" style="stroke:#181818;stroke-width:1.0;"/><line style="stroke:#181818;stroke-width:1.0;" x1="308" x2="308" y1="297.875" y2="317.875"/><polygon fill="#181818" points="304,307.875,308,317.875,312,307.875,308,311.875" style="stroke:#181818;stroke-width:1.0;"/><line style="stroke:#181818;stroke-width:1.0;" x1="127.5" x2="127.5" y1="519.8125" y2="539.8125"/><polygon fill="#181818" points="123.5,529.8125,127.5,539.8125,131.5,529.8125,127.5,533.8125" style="stroke:#181818;stroke-width:1.0;"/><line style="stroke:#181818;stroke-width:1.0;" x1="426.5" x2="426.5" y1="519.8125" y2="539.8125"/><polygon fill="#181818" points="422.5,529.8125,426.5,539.8125,430.5,529.8125,426.5,533.8125" style="stroke:#181818;stroke-width:1.0;"/><line style="stroke:#181818;stroke-width:1.0;" x1="127.5" x2="127.5" y1="573.7813" y2="593.7813"/><polygon fill="#181818" points="123.5,583.7813,127.5,593.7813,131.5,583.7813,127.5,587.7813" style="stroke:#181818;stroke-width:1.0;"/><line style="stroke:#181818;stroke-width:1.0;" x1="426.5" x2="426.5" y1="573.7813" y2="593.7813"/><polygon fill="#181818" points="422.5,583.7813,426.5,593.7813,430.5,583.7813,426.5,587.7813" style="stroke:#181818;stroke-width:1.0;"/><line style="stroke:#181818;stroke-width:1.0;" x1="308" x2="308" y1="493.8125" y2="513.8125"/><polygon fill="#181818" points="304,503.8125,308,513.8125,312,503.8125,308,507.8125" style="stroke:#181818;stroke-width:1.0;"/><line style="stroke:#181818;stroke-width:1.0;" x1="308" x2="308" y1="599.7813" y2="619.7813"/><polygon fill="#181818" points="304,609.7813,308,619.7813,312,609.7813,308,613.7813" style="stroke:#181818;stroke-width:1.0;"/><line style="stroke:#181818;stroke-width:1.0;" x1="308" x2="308" y1="653.75" y2="673.75"/><polygon fill="#181818" points="304,663.75,308,673.75,312,663.75,308,667.75" style="stroke:#181818;stroke-width:1.0;"/><line style="stroke:#181818;stroke-width:1.0;" x1="308" x2="308" y1="707.7188" y2="729.2188"/><polygon fill="#181818" points="304,719.2188,308,729.2188,312,719.2188,308,723.2188" style="stroke:#181818;stroke-width:1.0;"/><line style="stroke:#181818;stroke-width:1.0;" x1="308" x2="308" y1="763.1875" y2="783.1875"/><polygon fill="#181818" points="304,773.1875,308,783.1875,312,773.1875,308,777.1875" style="stroke:#181818;stroke-width:1.0;"/><line style="stroke:#181818;stroke-width:1.0;" x1="308" x2="308" y1="817.1563" y2="837.1563"/><polygon fill="#181818" points="304,827.1563,308,837.1563,312,827.1563,308,831.1563" style="stroke:#181818;stroke-width:1.0;"/><line style="stroke:#181818;stroke-width:1.0;" x1="308" x2="308" y1="871.125" y2="891.125"/><polygon fill="#181818" points="304,881.125,308,891.125,312,881.125,308,885.125" style="stroke:#181818;stroke-width:1.0;"/><line style="stroke:#181818;stroke-width:1.0;" x1="308" x2="308" y1="439.8438" y2="459.8438"/><polygon fill="#181818" points="304,449.8438,308,459.8438,312,449.8438,308,453.8438" style="stroke:#181818;stroke-width:1.0;"/><line style="stroke:#181818;stroke-width:1.0;" x1="385" x2="617" y1="957.0938" y2="957.0938"/><polygon fill="#181818" points="613,709.2188,617,699.2188,621,709.2188,617,705.2188" style="stroke:#181818;stroke-width:1.0;"/><line style="stroke:#181818;stroke-width:1.0;" x1="617" x2="617" y1="427.8438" y2="957.0938"/><line style="stroke:#181818;stroke-width:1.0;" x1="617" x2="320" y1="427.8438" y2="427.8438"/><polygon fill="#181818" points="330,423.8438,320,427.8438,330,431.8438,326,427.8438" style="stroke:#181818;stroke-width:1.0;"/><line style="stroke:#181818;stroke-width:1.0;" x1="308" x2="308" y1="925.0938" y2="945.0938"/><polygon fill="#181818" points="304,935.0938,308,945.0938,312,935.0938,308,939.0938" style="stroke:#181818;stroke-width:1.0;"/><line style="stroke:#181818;stroke-width:1.0;" x1="308" x2="308" y1="395.8438" y2="415.8438"/><polygon fill="#181818" points="304,405.8438,308,415.8438,312,405.8438,308,409.8438" style="stroke:#181818;stroke-width:1.0;"/><line style="stroke:#181818;stroke-width:1.0;" x1="383" x2="635" y1="1012.8042" y2="1012.8042"/><polygon fill="#181818" points="631,709.2188,635,699.2188,639,709.2188,635,705.2188" style="stroke:#181818;stroke-width:1.0;"/><line style="stroke:#181818;stroke-width:1.0;" x1="635" x2="635" y1="383.8438" y2="1012.8042"/><line style="stroke:#181818;stroke-width:1.0;" x1="635" x2="320" y1="383.8438" y2="383.8438"/><polygon fill="#181818" points="330,379.8438,320,383.8438,330,387.8438,326,383.8438" style="stroke:#181818;stroke-width:1.0;"/><line style="stroke:#181818;stroke-width:1.0;" x1="308" x2="308" y1="969.0938" y2="1000.8042"/><polygon fill="#181818" points="304,990.8042,308,1000.8042,312,990.8042,308,994.8042" style="stroke:#181818;stroke-width:1.0;"/><line style="stroke:#181818;stroke-width:1.0;" x1="308" x2="308" y1="351.8438" y2="371.8438"/><polygon fill="#181818" points="304,361.8438,308,371.8438,312,361.8438,308,365.8438" style="stroke:#181818;stroke-width:1.0;"/><line style="stroke:#181818;stroke-width:1.0;" x1="308" x2="308" y1="1024.8042" y2="1056.5146"/><polygon fill="#181818" points="304,1046.5146,308,1056.5146,312,1046.5146,308,1050.5146" style="stroke:#181818;stroke-width:1.0;"/><line style="stroke:#181818;stroke-width:1.0;" x1="308" x2="308" y1="1090.4834" y2="1110.4834"/><polygon fill="#181818" points="304,1100.4834,308,1110.4834,312,1100.4834,308,1104.4834" style="stroke:#181818;stroke-width:1.0;"/><!--MD5=[0e36ea6540558b52991500c37d00ed1c]
@startuml
start

#palegreen:Load configuration;

#palegreen:Load data;

#palegreen:Patch columnnames based on configuration;

fork
  #yellow:Preprocess individual data;
fork again
  #lightblue:Preprocess cumulative data;
end fork

#palegreen:Filter programme and origin based on configuration;

repeat
  repeat
    #yellow:Predict preapplication;

    fork
      #yellow:SARIMA with individual dataset;
    fork again
      #lightblue:SARIMA with cumulative dataset for pre-applicants;
    end fork

    #deepskyblue:Predict nr of students with XGBoost based on pre-applicants;

    #palegreen:Numerus fixus cap;

    #lightblue:Predict with ratio;

    #palegreen:Replace latest data with forecasted data;

    #palegreen:Postprocessing;

    #orchid:Predict nr of higher years students using XGBoost and ratio;

  repeat while (Forecast another week) is (yes) not (no)

repeat while (Forecast another year) is (yes) not (no)

#palegreen:Save final output;

stop
@enduml

PlantUML version 1.2022.7(Mon Aug 22 17:01:30 UTC 2022)
(GPL source distribution)
Java Runtime: OpenJDK Runtime Environment
JVM: OpenJDK 64-Bit Server VM
Default Encoding: UTF-8
Language: en
Country: null
--></g></svg>