<?xml version="1.0" encoding="UTF-8" standalone="no"?><svg xmlns="http://www.w3.org/2000/svg" xmlns:xlink="http://www.w3.org/1999/xlink" contentStyleType="text/css" height="386px" preserveAspectRatio="none" style="width:546px;height:386px;background:#FFFFFF;" version="1.1" viewBox="0 0 546 386" width="546px" zoomAndPan="magnify"><defs/><g><!--MD5=[38ac67bdb5367a0aef4fdfd83abfd938]
class AvailableData--><g id="elem_AvailableData"><rect codeLine="3" fill="#F1F1F1" height="48" id="AvailableData" rx="2.5" ry="2.5" style="stroke:#181818;stroke-width:0.5;" width="123" x="62" y="115"/><ellipse cx="77" cy="131" fill="#A9DCDF" rx="11" ry="11" style="stroke:#181818;stroke-width:1.0;"/><path d="M77.1094,126.3438 L75.9531,131.4219 L78.2813,131.4219 L77.1094,126.3438 Z M75.625,124.1094 L78.6094,124.1094 L81.9688,136.5 L79.5156,136.5 L78.75,133.4375 L75.4688,133.4375 L74.7188,136.5 L72.2813,136.5 L75.625,124.1094 Z " fill="#000000"/><text fill="#000000" font-family="sans-serif" font-size="14" font-style="italic" lengthAdjust="spacing" textLength="91" x="91" y="135.8467">AvailableData</text><line style="stroke:#181818;stroke-width:0.5;" x1="63" x2="184" y1="147" y2="147"/><line style="stroke:#181818;stroke-width:0.5;" x1="63" x2="184" y1="155" y2="155"/></g><!--MD5=[3ada0b1ccda01f6af47785107eed7eb1]
class Individual--><g id="elem_Individual"><rect codeLine="5" fill="#F1F1F1" height="48" id="Individual" rx="2.5" ry="2.5" style="stroke:#181818;stroke-width:0.5;" width="95" x="7" y="331"/><ellipse cx="22" cy="347" fill="#ADD1B2" rx="11" ry="11" style="stroke:#181818;stroke-width:1.0;"/><path d="M24.9688,352.6406 Q24.3906,352.9375 23.75,353.0781 Q23.1094,353.2344 22.4063,353.2344 Q19.9063,353.2344 18.5781,351.5938 Q17.2656,349.9375 17.2656,346.8125 Q17.2656,343.6875 18.5781,342.0313 Q19.9063,340.375 22.4063,340.375 Q23.1094,340.375 23.75,340.5313 Q24.4063,340.6875 24.9688,340.9844 L24.9688,343.7031 Q24.3438,343.125 23.75,342.8594 Q23.1563,342.5781 22.5313,342.5781 Q21.1875,342.5781 20.5,343.6563 Q19.8125,344.7188 19.8125,346.8125 Q19.8125,348.9063 20.5,349.9844 Q21.1875,351.0469 22.5313,351.0469 Q23.1563,351.0469 23.75,350.7813 Q24.3438,350.5 24.9688,349.9219 L24.9688,352.6406 Z " fill="#000000"/><text fill="#000000" font-family="sans-serif" font-size="14" lengthAdjust="spacing" textLength="63" x="36" y="351.8467">Individual</text><line style="stroke:#181818;stroke-width:0.5;" x1="8" x2="101" y1="363" y2="363"/><line style="stroke:#181818;stroke-width:0.5;" x1="8" x2="101" y1="371" y2="371"/></g><!--MD5=[a59af499038a2f1bdfc6f06770a2ce4c]
class Cumulative--><g id="elem_Cumulative"><rect codeLine="7" fill="#F1F1F1" height="48" id="Cumulative" rx="2.5" ry="2.5" style="stroke:#181818;stroke-width:0.5;" width="108" x="161.5" y="331"/><ellipse cx="176.5" cy="347" fill="#ADD1B2" rx="11" ry="11" style="stroke:#181818;stroke-width:1.0;"/><path d="M179.4688,352.6406 Q178.8906,352.9375 178.25,353.0781 Q177.6094,353.2344 176.9063,353.2344 Q174.4063,353.2344 173.0781,351.5938 Q171.7656,349.9375 171.7656,346.8125 Q171.7656,343.6875 173.0781,342.0313 Q174.4063,340.375 176.9063,340.375 Q177.6094,340.375 178.25,340.5313 Q178.9063,340.6875 179.4688,340.9844 L179.4688,343.7031 Q178.8438,343.125 178.25,342.8594 Q177.6563,342.5781 177.0313,342.5781 Q175.6875,342.5781 175,343.6563 Q174.3125,344.7188 174.3125,346.8125 Q174.3125,348.9063 175,349.9844 Q175.6875,351.0469 177.0313,351.0469 Q177.6563,351.0469 178.25,350.7813 Q178.8438,350.5 179.4688,349.9219 L179.4688,352.6406 Z " fill="#000000"/><text fill="#000000" font-family="sans-serif" font-size="14" lengthAdjust="spacing" textLength="76" x="190.5" y="351.8467">Cumulative</text><line style="stroke:#181818;stroke-width:0.5;" x1="162.5" x2="268.5" y1="363" y2="363"/><line style="stroke:#181818;stroke-width:0.5;" x1="162.5" x2="268.5" y1="371" y2="371"/></g><!--MD5=[5a7271acda2989c7627cb17169cd4823]
class BothDatasets--><g id="elem_BothDatasets"><rect codeLine="9" fill="#F1F1F1" height="48" id="BothDatasets" rx="2.5" ry="2.5" style="stroke:#181818;stroke-width:0.5;" width="127" x="60" y="223"/><ellipse cx="75" cy="239" fill="#ADD1B2" rx="11" ry="11" style="stroke:#181818;stroke-width:1.0;"/><path d="M77.9688,244.6406 Q77.3906,244.9375 76.75,245.0781 Q76.1094,245.2344 75.4063,245.2344 Q72.9063,245.2344 71.5781,243.5938 Q70.2656,241.9375 70.2656,238.8125 Q70.2656,235.6875 71.5781,234.0313 Q72.9063,232.375 75.4063,232.375 Q76.1094,232.375 76.75,232.5313 Q77.4063,232.6875 77.9688,232.9844 L77.9688,235.7031 Q77.3438,235.125 76.75,234.8594 Q76.1563,234.5781 75.5313,234.5781 Q74.1875,234.5781 73.5,235.6563 Q72.8125,236.7188 72.8125,238.8125 Q72.8125,240.9063 73.5,241.9844 Q74.1875,243.0469 75.5313,243.0469 Q76.1563,243.0469 76.75,242.7813 Q77.3438,242.5 77.9688,241.9219 L77.9688,244.6406 Z " fill="#000000"/><text fill="#000000" font-family="sans-serif" font-size="14" lengthAdjust="spacing" textLength="95" x="89" y="243.8467">BothDatasets</text><line style="stroke:#181818;stroke-width:0.5;" x1="61" x2="186" y1="255" y2="255"/><line style="stroke:#181818;stroke-width:0.5;" x1="61" x2="186" y1="263" y2="263"/></g><!--MD5=[84718776d214be480e4c259efcb737fc]
class Main--><g id="elem_Main"><rect codeLine="11" fill="#F1F1F1" height="48" id="Main" rx="2.5" ry="2.5" style="stroke:#181818;stroke-width:0.5;" width="64" x="287.5" y="7"/><ellipse cx="302.5" cy="23" fill="#ADD1B2" rx="11" ry="11" style="stroke:#181818;stroke-width:1.0;"/><path d="M305.4688,28.6406 Q304.8906,28.9375 304.25,29.0781 Q303.6094,29.2344 302.9063,29.2344 Q300.4063,29.2344 299.0781,27.5938 Q297.7656,25.9375 297.7656,22.8125 Q297.7656,19.6875 299.0781,18.0313 Q300.4063,16.375 302.9063,16.375 Q303.6094,16.375 304.25,16.5313 Q304.9063,16.6875 305.4688,16.9844 L305.4688,19.7031 Q304.8438,19.125 304.25,18.8594 Q303.6563,18.5781 303.0313,18.5781 Q301.6875,18.5781 301,19.6563 Q300.3125,20.7188 300.3125,22.8125 Q300.3125,24.9063 301,25.9844 Q301.6875,27.0469 303.0313,27.0469 Q303.6563,27.0469 304.25,26.7813 Q304.8438,26.5 305.4688,25.9219 L305.4688,28.6406 Z " fill="#000000"/><text fill="#000000" font-family="sans-serif" font-size="14" lengthAdjust="spacing" textLength="32" x="316.5" y="27.8467">Main</text><line style="stroke:#181818;stroke-width:0.5;" x1="288.5" x2="350.5" y1="39" y2="39"/><line style="stroke:#181818;stroke-width:0.5;" x1="288.5" x2="350.5" y1="47" y2="47"/></g><!--MD5=[5c67b3d5c7e2298e7d49eb7ff66e4916]
class LoadData--><g id="elem_LoadData"><rect codeLine="13" fill="#F1F1F1" height="48" id="LoadData" rx="2.5" ry="2.5" style="stroke:#181818;stroke-width:0.5;" width="97" x="220" y="115"/><ellipse cx="235" cy="131" fill="#DA70D6" rx="11" ry="11" style="stroke:#181818;stroke-width:1.0;"/><path d="M234.7969,126.6719 L234.7969,130.2969 L235.7969,130.2969 Q237,130.2969 237.4844,129.8906 Q237.9688,129.4844 237.9688,128.4844 Q237.9688,127.4844 237.4844,127.0781 Q237,126.6719 235.7969,126.6719 L234.7969,126.6719 Z M232.3438,124.6094 L235.7031,124.6094 Q238.2656,124.6094 239.3906,125.5313 Q240.5156,126.4375 240.5156,128.4844 Q240.5156,130.5313 239.3906,131.4531 Q238.2656,132.3594 235.7031,132.3594 L234.7969,132.3594 L234.7969,137 L232.3438,137 L232.3438,124.6094 Z " fill="#000000"/><text fill="#000000" font-family="sans-serif" font-size="14" lengthAdjust="spacing" textLength="65" x="249" y="135.8467">LoadData</text><line style="stroke:#181818;stroke-width:0.5;" x1="221" x2="316" y1="147" y2="147"/><line style="stroke:#181818;stroke-width:0.5;" x1="221" x2="316" y1="155" y2="155"/></g><!--MD5=[7bffaae63a17df6633a050b568724880]
class DataTotal--><g id="elem_DataTotal"><rect codeLine="15" fill="#F1F1F1" height="48" id="DataTotal" rx="2.5" ry="2.5" style="stroke:#181818;stroke-width:0.5;" width="98" x="307.5" y="223"/><ellipse cx="322.5" cy="239" fill="#ADD1B2" rx="11" ry="11" style="stroke:#181818;stroke-width:1.0;"/><path d="M325.4688,244.6406 Q324.8906,244.9375 324.25,245.0781 Q323.6094,245.2344 322.9063,245.2344 Q320.4063,245.2344 319.0781,243.5938 Q317.7656,241.9375 317.7656,238.8125 Q317.7656,235.6875 319.0781,234.0313 Q320.4063,232.375 322.9063,232.375 Q323.6094,232.375 324.25,232.5313 Q324.9063,232.6875 325.4688,232.9844 L325.4688,235.7031 Q324.8438,235.125 324.25,234.8594 Q323.6563,234.5781 323.0313,234.5781 Q321.6875,234.5781 321,235.6563 Q320.3125,236.7188 320.3125,238.8125 Q320.3125,240.9063 321,241.9844 Q321.6875,243.0469 323.0313,243.0469 Q323.6563,243.0469 324.25,242.7813 Q324.8438,242.5 325.4688,241.9219 L325.4688,244.6406 Z " fill="#000000"/><text fill="#000000" font-family="sans-serif" font-size="14" lengthAdjust="spacing" textLength="66" x="336.5" y="243.8467">DataTotal</text><line style="stroke:#181818;stroke-width:0.5;" x1="308.5" x2="404.5" y1="255" y2="255"/><line style="stroke:#181818;stroke-width:0.5;" x1="308.5" x2="404.5" y1="263" y2="263"/></g><!--MD5=[3ede8d5be2d305f0db9d978c5f93f08b]
class HigherYears--><g id="elem_HigherYears"><rect codeLine="17" fill="#F1F1F1" height="48" id="HigherYears" rx="2.5" ry="2.5" style="stroke:#181818;stroke-width:0.5;" width="116" x="423.5" y="115"/><ellipse cx="438.5" cy="131" fill="#ADD1B2" rx="11" ry="11" style="stroke:#181818;stroke-width:1.0;"/><path d="M441.4688,136.6406 Q440.8906,136.9375 440.25,137.0781 Q439.6094,137.2344 438.9063,137.2344 Q436.4063,137.2344 435.0781,135.5938 Q433.7656,133.9375 433.7656,130.8125 Q433.7656,127.6875 435.0781,126.0313 Q436.4063,124.375 438.9063,124.375 Q439.6094,124.375 440.25,124.5313 Q440.9063,124.6875 441.4688,124.9844 L441.4688,127.7031 Q440.8438,127.125 440.25,126.8594 Q439.6563,126.5781 439.0313,126.5781 Q437.6875,126.5781 437,127.6563 Q436.3125,128.7188 436.3125,130.8125 Q436.3125,132.9063 437,133.9844 Q437.6875,135.0469 439.0313,135.0469 Q439.6563,135.0469 440.25,134.7813 Q440.8438,134.5 441.4688,133.9219 L441.4688,136.6406 Z " fill="#000000"/><text fill="#000000" font-family="sans-serif" font-size="14" lengthAdjust="spacing" textLength="84" x="452.5" y="135.8467">HigherYears</text><line style="stroke:#181818;stroke-width:0.5;" x1="424.5" x2="538.5" y1="147" y2="147"/><line style="stroke:#181818;stroke-width:0.5;" x1="424.5" x2="538.5" y1="155" y2="155"/></g><!--MD5=[e70b693ad7a1a5911c77b06242f0d1ba]
link BothDatasets to Individual--><g id="link_BothDatasets_Individual"><path codeLine="19" d="M108.53,271 C97.93,287.28 83.67,309.19 72.46,326.41 " fill="none" id="BothDatasets-to-Individual" style="stroke:#181818;stroke-width:1.0;"/><polygon fill="#181818" points="69.68,330.68,77.9374,325.312,72.4039,326.4871,71.2288,320.9537,69.68,330.68" style="stroke:#181818;stroke-width:1.0;"/></g><!--MD5=[0ee55a303e73ece4e1d80f78c1858163]
link BothDatasets to Cumulative--><g id="link_BothDatasets_Cumulative"><path codeLine="20" d="M143.46,271 C157.71,287.42 176.93,309.56 191.93,326.84 " fill="none" id="BothDatasets-to-Cumulative" style="stroke:#181818;stroke-width:1.0;"/><polygon fill="#181818" points="195.26,330.68,192.3843,321.2603,191.9837,326.903,186.3411,326.5024,195.26,330.68" style="stroke:#181818;stroke-width:1.0;"/></g><!--MD5=[57b442b2fc6b1ac70f6ea7d06db0b79c]
reverse link AvailableData to BothDatasets--><g id="link_AvailableData_BothDatasets"><path codeLine="22" d="M123.5,183.02 C123.5,196.58 123.5,211.04 123.5,222.68 " fill="none" id="AvailableData-backto-BothDatasets" style="stroke:#181818;stroke-width:1.0;"/><polygon fill="none" points="116.5,183,123.5,163,130.5,183,116.5,183" style="stroke:#181818;stroke-width:1.0;"/></g><!--MD5=[55ca84cd95cfe9d38a91d09b0ed146b2]
reverse link AvailableData to Individual--><g id="link_AvailableData_Individual"><path codeLine="23" d="M75.7,176.7 C62.38,189.72 49.62,205.52 42.5,223 C28.03,258.54 37.72,303.85 46.09,330.8 " fill="none" id="AvailableData-backto-Individual" style="stroke:#181818;stroke-width:1.0;"/><polygon fill="none" points="71.14,171.39,90.71,163.25,80.48,181.81,71.14,171.39" style="stroke:#181818;stroke-width:1.0;"/></g><!--MD5=[3c8d6c3c271b526723fbfb86a21f1215]
reverse link AvailableData to Cumulative--><g id="link_AvailableData_Cumulative"><path codeLine="24" d="M170.12,176.78 C183.5,189.87 196.6,205.7 204.5,223 C220.43,257.88 220.19,303.39 218.14,330.57 " fill="none" id="AvailableData-backto-Cumulative" style="stroke:#181818;stroke-width:1.0;"/><polygon fill="none" points="165.28,181.84,155.15,163.22,174.67,171.46,165.28,181.84" style="stroke:#181818;stroke-width:1.0;"/></g><!--MD5=[0b5b0b41facf152e3ccfb44c12da306d]
link AvailableData to DataTotal--><g id="link_AvailableData_DataTotal"><path codeLine="26" d="M174.06,163 C212,180.26 263.85,203.85 302.58,221.47 " fill="none" id="AvailableData-to-DataTotal" style="stroke:#181818;stroke-width:1.0;"/><polygon fill="#181818" points="307.24,223.59,300.7106,216.2166,302.6906,221.5156,297.3916,223.4956,307.24,223.59" style="stroke:#181818;stroke-width:1.0;"/></g><!--MD5=[72d168b771825e3bc595352df55d0ed3]
link Main to LoadData--><g id="link_Main_LoadData"><path codeLine="28" d="M308.43,55 C300.67,71.14 290.24,92.82 281.99,109.97 " fill="none" id="Main-to-LoadData" style="stroke:#181818;stroke-width:1.0;stroke-dasharray:7.0,7.0;"/><polygon fill="#181818" points="279.72,114.68,287.2259,108.3034,281.8874,110.1742,280.0166,104.8356,279.72,114.68" style="stroke:#181818;stroke-width:1.0;"/></g><!--MD5=[ce82077636d2465c3fe87a9324bb0694]
link Main to AvailableData--><g id="link_Main_AvailableData"><path codeLine="29" d="M287.13,49.5 C255.5,66.61 206.98,92.85 170.98,112.32 " fill="none" id="Main-to-AvailableData" style="stroke:#181818;stroke-width:1.0;"/><polygon fill="#181818" points="166.21,114.9,176.0304,114.1512,170.6114,112.5278,172.2348,107.1089,166.21,114.9" style="stroke:#181818;stroke-width:1.0;"/></g><!--MD5=[ebadd66df594bc644f49586196be3868]
link Main to DataTotal--><g id="link_Main_DataTotal"><path codeLine="30" d="M323.78,55.24 C326.82,71.87 330.98,94.8 334.5,115 C340.66,150.36 347.46,191.14 351.85,217.68 " fill="none" id="Main-to-DataTotal" style="stroke:#181818;stroke-width:1.0;stroke-dasharray:7.0,7.0;"/><polygon fill="#181818" points="352.69,222.79,355.1694,213.2583,351.875,217.8569,347.2764,214.5624,352.69,222.79" style="stroke:#181818;stroke-width:1.0;"/></g><!--MD5=[1a240eb08749f2f76a27e46607beea76]
link Main to HigherYears--><g id="link_Main_HigherYears"><path codeLine="32" d="M351.51,52.94 C377.41,69.89 414.03,93.86 441.81,112.03 " fill="none" id="Main-to-HigherYears" style="stroke:#181818;stroke-width:1.0;"/><polygon fill="#181818" points="446.19,114.89,440.8546,106.6115,442.0079,112.1495,436.4699,113.3028,446.19,114.89" style="stroke:#181818;stroke-width:1.0;"/></g><!--MD5=[2c0e1d08a49878c29e5e6dde24116315]
@startuml
skinparam classAttributeIconSize 0

abstract class AvailableData

class Individual

class Cumulative

class BothDatasets

class Main

class LoadData << (P,orchid) >>

class DataTotal

class HigherYears

BothDatasets -down-> Individual
BothDatasets -down-> Cumulative

AvailableData <|- - BothDatasets
AvailableData <|- - Individual
AvailableData <|- - Cumulative

AvailableData - -> DataTotal

Main ..> LoadData
Main - -> AvailableData
Main ..> DataTotal

Main - -> HigherYears
@enduml

PlantUML version 1.2022.7(Mon Aug 22 17:01:30 UTC 2022)
(GPL source distribution)
Java Runtime: OpenJDK Runtime Environment
JVM: OpenJDK 64-Bit Server VM
Default Encoding: UTF-8
Language: en
Country: null
--></g></svg>